<?xml version="1.0" encoding="UTF-8" standalone="no"?>
<svg
     xmlns:dc="http://purl.org/dc/elements/1.1/"
     xmlns:cc="http://creativecommons.org/ns#"
     xmlns:rdf="http://www.w3.org/1999/02/22-rdf-syntax-ns#"
     xmlns:svg="http://www.w3.org/2000/svg"
     xmlns="http://www.w3.org/2000/svg"
     xmlns:xlink="http://www.w3.org/1999/xlink"
     xmlns:sodipodi="http://sodipodi.sourceforge.net/DTD/sodipodi-0.dtd"
     xmlns:inkscape="http://www.inkscape.org/namespaces/inkscape"
     width="1080"
     height="1920"
     viewBox="0 0 1080 1920"
     version="1.1"
     id="svg8"
     sodipodi:docname="sprite.svg"
     inkscape:version="1.0.1 (3bc2e813f5, 2020-09-07)">
    <defs
         id="defs2">
        <linearGradient
             id="fieldGradient"
             gradientUnits="userSpaceOnUse"
             x1="42.9863"
             y1="7.01270"
             x2="22.0144"
             y2="51.9871"
             gradientTransform="matrix(1.6602202,0,0,1.6602202,-6.9729261,163.02707)">
            <stop
                 offset="0.0"
                 stop-color="#BCD6FE"
                 id="stop978" />
            <stop
                 offset="1.0"
                 stop-color="#6787D3"
                 id="stop980" />
        </linearGradient>
        <linearGradient
             id="edgeGradient"
             gradientUnits="userSpaceOnUse"
             x1="55.4541"
             y1="42.7529"
             x2="9.54710"
             y2="16.2485"
             gradientTransform="matrix(1.6602202,0,0,1.6602202,-6.9729261,163.02707)">
            <stop
                 offset="0.0"
                 stop-color="#3057A7"
                 id="stop983" />
            <stop
                 offset="1.0"
                 stop-color="#5A7AC6"
                 id="stop985" />
        </linearGradient>
        <radialGradient
             id="shadowGradient"
             cx="32.5"
             cy="29.5"
             fx="32.5"
             fy="29.5"
             r="26.5"
             gradientUnits="userSpaceOnUse"
             gradientTransform="matrix(1.7678025,0,0,1.767839,-10.459389,164.83073)">
            <stop
                 offset="0.0"
                 stop-color="#C0C0C0"
                 id="stop988" />
            <stop
                 offset="0.88"
                 stop-color="#C0C0C0"
                 id="stop990" />
            <stop
                 offset="1.0"
                 stop-color="#C0C0C0"
                 stop-opacity="0.0"
                 id="stop992" />
        </radialGradient>
        <symbol
             id="symbol1069">
            <use
                 xlink:href="#information-icon"
                 id="use1067" />
        </symbol>
    </defs>
    <sodipodi:namedview
         id="base"
         pagecolor="#292929"
         bordercolor="#666666"
         borderopacity="1.0"
         inkscape:pageopacity="0"
         inkscape:pageshadow="2"
         inkscape:zoom="1.3646154"
         inkscape:cx="54.57304"
         inkscape:cy="245.78572"
         inkscape:document-units="px"
         inkscape:current-layer="layer1"
         inkscape:document-rotation="0"
         showgrid="false"
         inkscape:window-width="1267"
         inkscape:window-height="1042"
         inkscape:window-x="644"
         inkscape:window-y="6"
         inkscape:window-maximized="0"
         units="px"
         inkscape:pagecheckerboard="true" />
    <metadata
         id="metadata5">
        <rdf:RDF>
            <cc:Work
                 rdf:about="">
                <dc:format>image/svg+xml</dc:format>
                <dc:type
                     rdf:resource="http://purl.org/dc/dcmitype/StillImage" />
                <dc:title />
            </cc:Work>
        </rdf:RDF>
    </metadata>
    <g
         inkscape:label="Layer 1"
         inkscape:groupmode="layer"
         id="layer1">
        <g
             id="book"
             transform="matrix(0.54168468,0,0,0.54168468,-14.68345,-43.208484)">
            <path
                 id="path5078"
                 style="fill:#eee;stroke-width:0.264583"
                 d="m 176.66469,270.13467 c -46.59285,-4.03503 -93.086072,-9.33433 -139.600165,-14.23837 -11.26042,2.13606 -10.63773,-10.40381 -8.978041,-17.89832 15.603136,-50.41439 30.87636,-100.94839 47.01955,-151.185295 2.922877,-12.105677 17.784204,-4.687464 26.569276,-5.822636 33.75391,2.359362 67.54883,4.389114 101.25799,7.228014 0.77529,5.00025 -1.66404,11.059552 -2.38322,16.492467 -2.41943,5.25766 1.39053,10.36364 7.41432,9.16636 7.74194,3.43929 -0.85493,16.48796 -0.3987,23.77499 -8.71388,44.11752 -16.99526,88.33338 -26.32624,132.32163 -1.44039,0.76788 -3.06993,0.21923 -4.57477,0.16116 z" />
            <path
                 id="path5080"
                 style="fill:#fdfdbd;stroke-width:0.264583"
                 d="m 177.06157,270.13377 c -48.77044,-4.61298 -97.505326,-9.76212 -146.192244,-15.21283 -7.491562,-5.83595 -1.825991,-18.12433 0.215457,-26.06267 14.954656,-47.7047 29.178551,-95.65431 44.687702,-143.17519 3.51652,-10.52382 16.818242,-3.438985 24.915675,-4.55136 34.12902,2.465621 68.35571,4.437972 102.4091,7.37523 -0.21677,7.013075 -2.98225,14.10547 -3.42191,21.05549 1.99089,7.16511 16.50905,1.68211 10.66227,12.48835 -9.58114,49.37303 -19.19547,98.74219 -29.21452,148.02792 -1.30854,0.556 -2.72248,0.15451 -4.06153,0.0551 z m 12.61986,-79.30772 c 4.88112,-24.0039 9.76225,-48.00781 14.64337,-72.01171 -3.48895,-2.25731 -5.90368,-11.82444 -6.19802,-2.47215 -8.54128,42.71512 -16.57877,85.58194 -25.50835,128.18643 -10.37854,-2.80073 -3.88159,11.83193 -0.61187,15.96456 5.27882,6.09565 3.88671,-9.6795 6.05877,-13.03449 3.92328,-18.86698 7.77271,-37.74925 11.6161,-56.63264 z" />
            <path
                 id="path5082"
                 style="fill:#d0d0d0;stroke-width:0.264583"
                 d="m 177.06157,270.13377 c -48.77044,-4.61298 -97.505326,-9.76212 -146.192244,-15.21283 -7.491562,-5.83595 -1.825991,-18.12433 0.215457,-26.06267 14.954656,-47.7047 29.178551,-95.65431 44.687702,-143.17519 3.51652,-10.52382 16.818242,-3.438985 24.915675,-4.55136 34.12902,2.465621 68.35571,4.437972 102.4091,7.37523 -0.21677,7.013075 -2.98225,14.10547 -3.42191,21.05549 1.99089,7.16511 16.50905,1.68211 10.66227,12.48835 -9.58114,49.37303 -19.19547,98.74219 -29.21452,148.02792 -1.30854,0.556 -2.72248,0.15451 -4.06153,0.0551 z m 12.61986,-79.30772 c 4.88112,-24.0039 9.76225,-48.00781 14.64337,-72.01171 -3.48895,-2.25731 -5.90368,-11.82444 -6.19802,-2.47215 -8.54128,42.71512 -16.57877,85.58194 -25.50835,128.18643 -10.37854,-2.80073 -3.88159,11.83193 -0.61187,15.96456 5.27882,6.09565 3.88671,-9.6795 6.05877,-13.03449 3.92328,-18.86698 7.77271,-37.74925 11.6161,-56.63264 z M 167.77025,127.5183 c 1.03026,-8.07393 4.7258,-18.03298 3.84061,-24.89046 -24.85115,-1.9577 -49.70321,-4.058532 -74.585744,-5.51729 -3.697847,15.84843 -7.473499,31.67906 -11.076352,47.54939 23.487356,3.15991 47.257216,4.62428 70.863826,7.01636 5.7135,2.47368 7.1511,-0.92632 7.33715,-5.7749 1.20683,-6.1277 2.41367,-12.2554 3.62051,-18.3831 z" />
            <path
                 id="path5084"
                 style="fill:#bcbcbc;stroke-width:0.264583"
                 d="M 176.13553,270.09244 C 127.39792,264.98023 78.608504,260.29036 29.930237,254.65483 23.808334,246.63761 29.64698,235.76016 31.753452,227.15006 46.54683,179.97958 60.563736,132.54782 75.971473,85.581267 79.706506,75.048089 93.28323,82.47009 101.52142,81.236798 c 33.85843,2.388183 67.72363,4.707911 101.55991,7.388657 0.70421,7.852502 -7.59807,19.438985 -0.38321,24.807785 6.14331,-0.21746 11.20868,1.43504 7.6274,8.24993 -9.73566,49.47629 -19.14256,99.05846 -29.30768,148.42501 -1.49369,0.70054 -3.3149,-0.10897 -4.88231,-0.0157 z m -0.56314,-9.00956 c 9.64575,-47.47304 19.31417,-94.94147 28.97235,-142.41198 -3.74671,-3.10744 -6.17395,-10.90227 -6.61429,-1.80254 -8.55893,42.45743 -16.74902,84.98845 -25.30093,127.44714 -10.0744,-3.26402 -4.64857,9.6101 -2.2407,14.17369 1.07136,1.34367 4.91034,7.99404 5.18357,2.59369 z M 163.03865,151.98915 c 3.13464,-16.32831 6.48946,-32.61475 9.525,-48.96175 -17.80603,-2.42718 -35.98321,-2.9134 -53.93421,-4.520651 -6.68801,1.602501 -19.757983,-5.604134 -22.369492,1.800641 -3.537945,14.87657 -7.13034,29.74801 -10.287465,44.70941 25.159377,2.57955 50.346257,4.92654 75.544817,7.09297 z" />
            <path
                 id="path5086"
                 style="fill:#adac90;stroke-width:0.264583"
                 d="m 176.66469,270.08759 c -48.53433,-5.02303 -97.067294,-10.06003 -145.592624,-15.16914 -7.19095,-5.07378 -2.610593,-16.1119 -0.628846,-23.14481 15.187139,-48.49253 29.699753,-97.20957 45.36037,-145.545592 2.331766,-10.792866 14.600871,-4.3315 22.042371,-5.145533 34.847589,2.509478 69.709199,4.84158 104.549459,7.441969 1.02034,4.873543 -1.67726,10.891008 -2.33555,16.231486 -2.14338,4.59705 0.61899,10.25641 6.31968,9.35868 9.96024,0.4462 0.75294,14.20182 1.24676,21.03908 -8.91764,45.00349 -17.50245,90.11999 -26.66228,135.04719 -1.37468,0.4628 -2.89583,-0.1177 -4.29934,-0.11333 z m -4.76216,-7.76172 c -5.58032,-4.37273 -4.82948,-13.97207 -7.1637,-18.34841 -42.94415,-4.31405 -85.8883,-8.62809 -128.832451,-12.94213 -2.787742,5.00698 -7.435056,16.34448 -1.07489,19.30399 46.045035,4.72473 92.136861,9.14359 138.241601,13.19097 -0.39019,-0.40147 -0.78037,-0.80295 -1.17056,-1.20442 z m 18.10179,-71.62802 c 4.88751,-24.03908 9.77502,-48.07815 14.66253,-72.11723 -3.85029,-2.71351 -6.19124,-11.60363 -6.71042,-2.22581 -8.63206,42.52966 -16.76579,85.15948 -25.4462,127.67904 -10.53153,-2.26621 -4.18448,12.04567 -0.88593,16.60214 6.82695,6.46711 4.95575,-12.83169 7.69535,-17.68074 3.58701,-17.41392 7.14118,-34.83458 10.68467,-52.2574 z M 162.9389,152.08804 c 3.4578,-16.44068 6.68776,-32.93822 9.66867,-49.47182 -25.1849,-2.09117 -50.38901,-3.994906 -75.602341,-5.709465 -3.845667,15.952315 -7.586274,31.931825 -11.224905,47.932665 14.995006,2.29504 30.513416,2.95351 45.701306,4.64376 10.44804,0.71951 21.1306,2.44659 31.45727,2.60486 z" />
            <path
                 id="path5088"
                 style="fill:#93908c;stroke-width:0.264583"
                 d="m 177.06157,270.09452 c -49.09368,-5.29861 -98.274599,-9.896 -147.305541,-15.71058 -5.344767,-7.29784 -0.755784,-16.8684 1.388127,-24.64585 14.940566,-47.75718 29.206735,-95.74136 44.686202,-143.320203 3.179695,-11.685859 17.575188,-3.749032 26.076892,-5.005544 33.67032,2.491375 67.37285,4.599457 101.02223,7.343477 0.59841,7.868959 -7.85961,19.58822 -0.27401,24.8341 6.0845,0.0959 11.00065,1.21165 7.55622,8.06204 -9.68471,49.5417 -19.50202,99.05742 -29.18137,148.60016 -1.3143,0.32361 -2.65421,-0.15065 -3.96875,-0.1576 z m -3.70417,-6.43264 c -7.08649,-4.28977 -5.7561,-15.1789 -8.97464,-19.84307 -42.77866,-4.26213 -85.550477,-8.59306 -128.331412,-12.83229 -4.220088,5.59815 -8.706765,21.57069 3.059055,19.98475 44.738812,4.26346 89.492107,8.96458 134.246997,12.69061 z m 16.58193,-72.11724 c 4.89019,-24.13393 9.84853,-48.25452 14.62746,-72.41072 -2.92266,-2.49003 -6.52668,-13.43072 -6.68459,-3.41081 -8.42732,42.87202 -16.87545,85.74189 -25.6578,128.54234 -10.32302,-2.69314 -3.865,11.99765 -0.72247,16.31856 6.37527,7.6684 4.70453,-9.85372 7.06998,-13.64286 3.8309,-18.45689 7.60574,-36.92547 11.36742,-55.39651 z m -26.79689,-39.35783 c 3.40626,-16.41125 6.61817,-32.86861 9.63395,-49.3561 -7.57325,-1.9558 -16.48445,-1.35552 -24.52991,-2.40176 -17.08817,-1.138526 -34.15382,-2.852739 -51.266055,-3.499502 -4.112488,16.017232 -7.889226,32.140922 -11.298097,48.322152 25.249422,2.60251 50.527962,4.9635 75.819352,7.12418 z" />
            <path
                 id="path5090"
                 style="fill:#918b76;stroke-width:0.264583"
                 d="m 177.85532,270.13329 c -49.26783,-5.34785 -98.631089,-9.92132 -147.837185,-15.7726 -6.025975,-7.30666 -0.561113,-17.48295 1.466723,-25.40957 14.763634,-47.2263 28.953847,-94.6412 44.099494,-141.742106 2.331957,-11.839115 15.443672,-5.271216 23.654643,-5.914088 34.513725,2.602723 69.074275,4.665353 103.560715,7.578076 -6.76956,38.648978 -15.19771,77.016478 -22.52698,115.576618 -2.60845,13.15064 -5.18379,26.30798 -7.83697,39.44967 -7.19656,-1.89943 -6.61871,3.94591 -4.76448,9.30353 0.80088,5.53875 9.31616,15.85487 8.96231,4.28892 9.37314,-46.33614 18.81606,-92.65812 28.22995,-138.98599 -5.51389,-4.14872 -3.71507,-6.36664 2.96845,-4.04971 7.99728,-0.48155 -0.26355,10.72094 0.75621,15.24928 -9.25434,46.8959 -18.46697,93.8 -27.69016,140.70203 -1.01831,-0.0359 -2.03125,-0.15869 -3.04272,-0.27406 z m -4.17944,-6.21594 c -7.00115,-4.50638 -5.93399,-15.23397 -9.18221,-20.05783 -42.83551,-4.5351 -85.707805,-8.71418 -128.564105,-13.04713 -3.904104,5.4142 -8.906138,21.13094 2.341057,20.189 45.108132,4.45784 90.313348,8.86576 135.405258,12.91596 z M 163.14244,152.18681 c 3.40626,-16.41125 6.61817,-32.86861 9.63395,-49.3561 -7.57325,-1.9558 -16.48445,-1.35552 -24.52991,-2.40176 -17.08817,-1.138526 -34.15382,-2.852739 -51.266055,-3.499502 -4.112488,16.017232 -7.889226,32.140922 -11.298097,48.322152 25.249422,2.60251 50.527962,4.9635 75.819352,7.12418 z" />
            <path
                 id="path5092"
                 style="fill:#bc823d;stroke-width:0.264583"
                 d="m 177.72303,270.09213 c -49.1643,-5.23457 -98.344596,-10.31817 -147.517584,-15.47055 -5.683933,-6.37102 -1.641747,-15.67811 0.454912,-22.76569 15.197161,-48.43701 29.560359,-97.14288 45.345858,-145.390689 2.692619,-11.333051 15.999398,-4.086547 24.015664,-5.086443 34.24338,2.565623 68.52055,4.763322 102.74751,7.491511 -6.54849,36.846141 -14.49184,73.455261 -21.49191,110.232931 -2.95243,14.99435 -5.91354,29.987 -8.87185,44.9802 -6.77233,0.83638 -12.22644,-1.32975 -19.86546,-1.63194 -38.99335,-3.79467 -77.946674,-8.22741 -116.987826,-11.39483 -3.008053,5.25188 -8.585466,19.92321 1.524202,19.97638 45.570075,4.43013 91.145174,8.82527 136.747024,12.91307 -4.54786,-3.5266 -8.13253,-13.32071 -7.33148,-16.32336 0.22754,5.03277 4.63192,17.23227 9.01676,14.43063 10.06939,-47.76573 19.61457,-95.64015 29.38684,-143.46729 -4.50135,-3.44988 -4.33339,-6.44347 2.23923,-4.14802 9.01798,0.30278 -0.44333,13.65826 0.50748,19.66501 -8.95289,45.36107 -17.896,90.72596 -26.70147,136.11485 -0.99989,0.53041 -2.21197,-0.33032 -3.2179,-0.12577 z M 163.17825,152.39346 c 3.49405,-16.61872 6.74524,-33.29858 9.72941,-50.01615 -25.31882,-2.19602 -50.67633,-4.068527 -76.043252,-5.611956 -3.933378,16.096666 -8.001883,32.246276 -11.293918,48.451416 25.46091,3.01145 51.26052,4.88882 76.85724,7.42123 z" />
            <path
                 id="path5094"
                 style="fill:#b47c3a;stroke-width:0.264583"
                 d="m 177.72303,270.09213 c -49.1643,-5.23457 -98.344596,-10.31817 -147.517584,-15.47055 -5.683933,-6.37102 -1.641747,-15.67811 0.454912,-22.76569 15.197161,-48.43701 29.560359,-97.14288 45.345858,-145.390689 2.692619,-11.333051 15.999398,-4.086547 24.015664,-5.086443 34.24338,2.565623 68.52055,4.763322 102.74751,7.491511 -6.54849,36.846141 -14.49184,73.455261 -21.49191,110.232931 -2.95243,14.99435 -5.91354,29.987 -8.87185,44.9802 -6.77233,0.83638 -12.22644,-1.32975 -19.86546,-1.63194 -38.99335,-3.79467 -77.946674,-8.22741 -116.987826,-11.39483 -3.008053,5.25188 -8.585466,19.92321 1.524202,19.97638 45.570075,4.43013 91.145174,8.82527 136.747024,12.91307 -4.54786,-3.5266 -8.13253,-13.32071 -7.33148,-16.32336 0.22754,5.03277 4.63192,17.23227 9.01676,14.43063 10.06939,-47.76573 19.61457,-95.64015 29.38684,-143.46729 -4.50135,-3.44988 -4.33339,-6.44347 2.23923,-4.14802 9.01798,0.30278 -0.44333,13.65826 0.50748,19.66501 -8.95289,45.36107 -17.896,90.72596 -26.70147,136.11485 -0.99989,0.53041 -2.21197,-0.33032 -3.2179,-0.12577 z m 3.26247,-4.90821 c 9.74693,-49.74319 19.65579,-99.48142 29.29673,-149.22838 -3.24271,-1.03137 -11.20147,-2.31485 -4.80588,1.66218 -3.99284,25.00585 -9.83894,49.74075 -14.63792,74.62405 -4.94796,23.88751 -9.58008,47.85762 -14.81311,71.6759 -2.79142,2.65685 -15.34222,-0.80215 -22.03751,-0.71763 -40.53584,-3.85755 -81.086692,-7.58566 -121.586306,-11.80463 -5.014429,-4.79282 0.924914,-16.52483 0.246216,-18.71097 -4.617085,5.61307 -8.423432,22.01092 2.659387,21.43524 48.271973,5.18571 96.538433,10.49261 144.853483,15.23148 0.27497,-1.38908 0.54994,-2.77816 0.82491,-4.16724 z m -6.87478,-34.32969 c 9.25354,-47.09356 18.64567,-94.16029 27.768,-141.279394 C 161.94387,86.5995 121.99368,83.802462 82.033759,81.185433 66.844834,130.69337 51.616587,180.19945 36.789466,229.81218 c 44.920214,4.42632 89.814304,9.1641 134.752754,13.36781 0.97903,-4.08067 1.73104,-8.21423 2.5685,-12.32576 z m -51.28873,-80.97772 c -12.67775,-1.18281 -25.3545,-2.37664 -38.033853,-3.54218 0.463539,-8.19525 3.54616,-16.53761 5.127578,-24.77068 2.063202,-8.57048 3.978043,-17.182 6.266795,-25.694787 25.9508,1.332775 51.87554,3.508075 77.77136,5.697877 -3.00436,17.15112 -6.32048,34.25823 -9.88933,51.30155 -8.38948,1.07257 -17.73923,-1.35652 -26.47213,-1.61969 -4.9238,-0.45389 -9.84725,-0.91148 -14.77042,-1.37209 z m 40.35626,2.51695 c 3.49405,-16.61872 6.74524,-33.29858 9.72941,-50.01615 -25.31882,-2.19602 -50.67633,-4.068527 -76.043252,-5.611956 -3.933378,16.096666 -8.001883,32.246276 -11.293918,48.451416 25.46091,3.01145 51.26052,4.88882 76.85724,7.42123 z M 34.252723,229.94439 c 4.126335,-6.7316 5.168414,-16.26365 8.156996,-24.03535 12.617106,-41.59609 25.431716,-83.1969 37.909525,-124.792719 -5.853778,6.811072 -6.421195,16.74712 -9.756467,24.929229 C 57.621284,147.7415 44.450645,189.39483 31.871692,231.1856 l 0.630816,-0.38724 1.750215,-0.85396 z" />
            <path
                 id="path5096"
                 style="fill:#837764;stroke-width:0.264583"
                 d="m 177.72303,270.09213 c -49.1643,-5.23457 -98.344596,-10.31817 -147.517584,-15.47055 -5.683933,-6.37102 -1.641747,-15.67811 0.454912,-22.76569 15.197161,-48.43701 29.560359,-97.14288 45.345858,-145.390689 2.692619,-11.333051 15.999398,-4.086547 24.015664,-5.086443 34.24338,2.565623 68.52055,4.763322 102.74751,7.491511 -6.54849,36.846141 -14.49184,73.455261 -21.49191,110.232931 -2.95243,14.99435 -5.91354,29.987 -8.87185,44.9802 -6.77233,0.83638 -12.22644,-1.32975 -19.86546,-1.63194 -38.99335,-3.79467 -77.946674,-8.22741 -116.987826,-11.39483 -3.008053,5.25188 -8.585466,19.92321 1.524202,19.97638 45.570075,4.43013 91.145174,8.82527 136.747024,12.91307 -4.54786,-3.5266 -8.13253,-13.32071 -7.33148,-16.32336 0.22754,5.03277 4.63192,17.23227 9.01676,14.43063 10.06939,-47.76573 19.61457,-95.64015 29.38684,-143.46729 -4.50135,-3.44988 -4.33339,-6.44347 2.23923,-4.14802 9.01798,0.30278 -0.44333,13.65826 0.50748,19.66501 -8.95289,45.36107 -17.896,90.72596 -26.70147,136.11485 -0.99989,0.53041 -2.21197,-0.33032 -3.2179,-0.12577 z m 2.73656,-1.73321 c 10.0809,-50.84531 20.05613,-101.71229 29.88743,-152.60639 -4.37076,-1.10286 -11.06448,-2.10332 -4.71045,2.56006 -9.68365,48.45227 -19.51704,96.87728 -29.52883,145.26264 -4.63955,3.4424 -19.24603,-1.3322 -27.40886,-0.95913 -38.7769,-3.75887 -77.59808,-7.14478 -116.319882,-11.42214 -4.643441,-5.47461 0.53352,-15.11862 0.88067,-19.3621 -4.862854,5.09846 -9.018943,20.10861 -0.154121,22.36499 48.973313,5.09961 97.944963,10.21579 146.910663,15.38791 z m -8.44325,-26.32604 c 10.03572,-50.689 20.01572,-101.38925 29.91563,-152.104934 -8.50576,-1.774147 -17.83512,-1.506287 -26.67025,-2.43754 C 144.16005,85.299372 113.06208,83.047334 81.950341,81.005395 66.737716,130.57861 51.57704,180.17 36.643909,229.82788 c 44.78343,4.61564 89.586501,9.04424 134.379631,13.56488 l 0.64225,-0.19312 z m -48.26831,-92.16385 c -12.89944,-1.21574 -25.804733,-2.37517 -38.69531,-3.68158 -0.06217,-7.61798 3.530467,-16.36635 4.938854,-24.41511 2.060143,-8.64389 4.041523,-17.30805 6.219017,-25.92303 25.711169,1.498619 51.395829,3.670138 77.080669,5.6276 0.57054,7.09562 -2.69084,15.39661 -3.6582,22.93684 -1.93027,9.57719 -3.74056,19.18187 -5.85851,28.71913 -11.97567,-0.0896 -24.10988,-2.09643 -36.14107,-2.90316 l -1.93141,-0.17923 z m 39.43022,2.52443 c 3.49405,-16.61872 6.74524,-33.29858 9.72941,-50.01615 -25.31882,-2.19602 -50.67633,-4.068527 -76.043252,-5.611956 -3.933378,16.096666 -8.001883,32.246276 -11.293918,48.451416 25.46091,3.01145 51.26052,4.88882 76.85724,7.42123 z M 32.704973,230.85643 c 6.624086,-4.96806 5.886464,-16.09089 9.45263,-23.58128 12.77701,-42.07145 25.615411,-84.12497 38.211043,-126.251002 -6.022544,6.649191 -6.657323,16.639413 -9.956812,24.805222 -12.894608,41.82739 -26.234142,83.97288 -38.690063,125.65329 z" />
            <path
                 id="path5098"
                 style="fill:#79726a;stroke-width:0.264583"
                 d="m 178.25219,270.12076 c -49.41628,-5.46312 -98.928931,-10.10907 -148.298946,-15.95318 -6.122402,-8.04635 0.175178,-18.36975 2.178962,-26.85614 14.701544,-46.80696 28.734316,-93.83331 43.814201,-140.515406 1.126488,-9.127137 9.697734,-6.632796 16.049671,-5.880837 36.832372,2.761131 73.686452,5.305374 110.521652,7.973927 -0.98847,8.032563 -2.80397,16.796666 -4.44672,24.922256 -8.62977,43.3424 -17.13918,86.71719 -25.69154,130.06773 -7.17761,1.25714 -13.57599,-1.46379 -21.77683,-1.62545 -38.34789,-3.72464 -76.655223,-8.09343 -115.050292,-11.19704 -3.008053,5.25188 -8.585466,19.92321 1.524201,19.97638 45.570075,4.43013 91.145171,8.82527 136.747021,12.91307 -4.54809,-3.52664 -8.132,-13.32054 -7.33183,-16.32336 -0.76311,6.05009 9.26376,23.71946 10.26074,9.95446 9.23655,-46.06391 18.85121,-92.06164 27.99182,-138.14706 -0.74748,-2.69863 -7.51856,-7.80461 0.11968,-5.21453 12.71152,-1.63588 1.79137,13.67869 2.48923,20.80769 -8.88376,45.03022 -17.87663,90.04083 -26.47728,135.12566 -0.70709,0.69008 -1.88009,-0.27754 -2.62374,-0.0282 z m 2.2074,-1.76184 c 10.0809,-50.84531 20.05613,-101.71229 29.88743,-152.60639 -4.37076,-1.10286 -11.06448,-2.10332 -4.71045,2.56006 -9.72534,48.59613 -19.55038,97.19365 -29.65384,145.70141 -2.57776,2.34524 -14.46631,-0.953 -20.25361,-0.75339 -41.10776,-4.08592 -82.312743,-7.41461 -123.351008,-12.06723 -4.641855,-5.47492 0.534438,-15.11816 0.881556,-19.36152 -4.862854,5.09846 -9.018943,20.10861 -0.154121,22.36499 48.973313,5.09961 97.944963,10.21579 146.910663,15.38791 z m -8.44325,-26.32604 c 10.03572,-50.689 20.01572,-101.38925 29.91563,-152.104934 -8.50576,-1.774147 -17.83512,-1.506287 -26.67025,-2.43754 C 144.16005,85.299372 113.06208,83.047334 81.950341,81.005395 66.737716,130.57861 51.57704,180.17 36.643909,229.82788 c 44.78343,4.61564 89.586501,9.04424 134.379631,13.56488 l 0.64225,-0.19312 z m -48.26831,-92.16385 c -12.89944,-1.21574 -25.804733,-2.37517 -38.69531,-3.68158 -0.06217,-7.61798 3.530467,-16.36635 4.938854,-24.41511 2.060143,-8.64389 4.041523,-17.30805 6.219017,-25.92303 25.711169,1.498619 51.395829,3.670138 77.080669,5.6276 0.57054,7.09562 -2.69084,15.39661 -3.6582,22.93684 -1.93027,9.57719 -3.74056,19.18187 -5.85851,28.71913 -11.97567,-0.0896 -24.10988,-2.09643 -36.14107,-2.90316 l -1.93141,-0.17923 z m 39.6198,2.4701 c 3.23191,-16.63889 6.88418,-33.21581 9.55402,-49.95232 -25.35045,-2.34801 -50.77325,-4.125148 -76.17769,-5.748151 -4.049181,16.154601 -7.813314,32.395021 -11.270805,48.686311 25.777645,2.74997 51.630745,5.16063 77.469495,7.25388 z m -130.662857,78.5173 c 6.624086,-4.96806 5.886464,-16.09089 9.45263,-23.58128 12.77701,-42.07145 25.615411,-84.12497 38.211043,-126.251002 -6.022544,6.649191 -6.657323,16.639413 -9.956812,24.805222 -12.894608,41.82739 -26.234142,83.97288 -38.690063,125.65329 z" />
            <path
                 id="path5100"
                 style="fill:#a87437;stroke-width:0.264583"
                 d="m 178.51678,270.13228 c -49.32652,-5.4063 -98.742342,-10.19007 -148.036678,-15.76074 -7.120656,-7.47893 -0.200766,-18.41573 1.645314,-26.92962 14.594043,-47.00265 28.854353,-94.12299 43.94672,-140.962335 3.130032,-11.714434 17.394182,-3.549638 25.814624,-4.892212 33.58329,2.489748 67.1837,4.7581 100.75453,7.409422 -6.463,36.029005 -14.18207,71.847235 -21.04619,107.819465 -3.25922,15.66739 -5.87453,31.55784 -9.55673,47.08431 -34.64697,-2.6573 -69.28295,-6.79006 -103.923304,-10.04287 -10.783026,-0.96009 -21.573634,-2.37328 -32.357665,-2.97951 -3.330285,4.97925 -8.278887,17.82623 -0.400827,20.07084 45.881422,4.46171 91.761766,9.00904 137.689226,12.97132 9.46014,1.30748 -6.50008,0.79261 -9.28147,0.0836 -43.58913,-4.22413 -87.23018,-7.98397 -130.771608,-12.66053 -7.002778,-3.44373 2.327422,-19.44342 -0.663819,-18.50189 -4.656492,5.8909 -8.066531,22.59796 3.57563,21.6481 48.09677,4.96363 96.176777,10.09053 144.280727,14.98374 10.21323,-51.20835 20.26715,-102.44984 30.16195,-153.72067 -4.37066,-1.10312 -11.0648,-2.10356 -4.71064,2.55987 -9.5953,48.40744 -19.63831,96.72578 -29.36875,145.1064 0.0131,-7.13561 3.01639,-16.23129 4.25162,-24.14728 8.08861,-40.15967 16.40832,-80.27351 24.32338,-120.4677 -2.96478,-3.05303 -5.34131,-6.46704 1.1913,-4.39943 10.97709,-0.91185 0.41443,13.89776 1.36244,20.43109 -8.92558,45.06342 -17.77365,90.1482 -26.61603,135.22433 l -0.35818,0.21593 -1.90557,-0.14365 z m -6.50044,-28.0994 c 10.03572,-50.689 20.01572,-101.38925 29.91563,-152.104934 -8.50576,-1.774147 -17.83512,-1.506287 -26.67025,-2.43754 C 144.16005,85.299372 113.06208,83.047334 81.950341,81.005395 66.737716,130.57861 51.57704,180.17 36.643909,229.82788 c 44.78343,4.61564 89.586501,9.04424 134.379631,13.56488 l 0.64225,-0.19312 z m -48.26831,-92.16385 c -12.89944,-1.21574 -25.804733,-2.37517 -38.69531,-3.68158 -0.06217,-7.61798 3.530467,-16.36635 4.938854,-24.41511 2.060143,-8.64389 4.041523,-17.30805 6.219017,-25.92303 25.711169,1.498619 51.395829,3.670138 77.080669,5.6276 0.57054,7.09562 -2.69084,15.39661 -3.6582,22.93684 -1.93027,9.57719 -3.74056,19.18187 -5.85851,28.71913 -11.97567,-0.0896 -24.10988,-2.09643 -36.14107,-2.90316 l -1.93141,-0.17923 z m 39.6198,2.4701 c 3.23191,-16.63889 6.88418,-33.21581 9.55402,-49.95232 -25.35045,-2.34801 -50.77325,-4.125148 -76.17769,-5.748151 -4.049181,16.154601 -7.813314,32.395021 -11.270805,48.686311 25.777645,2.74997 51.630745,5.16063 77.469495,7.25388 z m -130.662857,78.5173 c 6.624086,-4.96806 5.886464,-16.09089 9.45263,-23.58128 12.77701,-42.07145 25.615411,-84.12497 38.211043,-126.251002 -6.022544,6.649191 -6.657323,16.639413 -9.956812,24.805222 -12.894608,41.82739 -26.234142,83.97288 -38.690063,125.65329 z" />
            <path
                 id="path5102"
                 style="fill:#79664e;stroke-width:0.264583"
                 d="m 178.51678,270.13228 c -49.32652,-5.4063 -98.742342,-10.19007 -148.036678,-15.76074 -7.120656,-7.47893 -0.200766,-18.41573 1.645314,-26.92962 14.594043,-47.00265 28.854353,-94.12299 43.94672,-140.962335 3.130032,-11.714434 17.394182,-3.549638 25.814624,-4.892212 33.58329,2.489748 67.1837,4.7581 100.75453,7.409422 -6.463,36.029005 -14.18207,71.847235 -21.04619,107.819465 -3.25922,15.66739 -5.87453,31.55784 -9.55673,47.08431 -34.64697,-2.6573 -69.28295,-6.79006 -103.923304,-10.04287 -10.783026,-0.96009 -21.573634,-2.37328 -32.357665,-2.97951 -3.330285,4.97925 -8.278887,17.82623 -0.400827,20.07084 46.206392,4.4593 92.404156,9.13769 138.662286,13.0038 6.43184,1.58236 -8.86397,-0.0277 -10.89489,-0.2165 -43.46183,-3.96824 -86.900439,-8.1851 -130.348979,-12.29526 -5.247846,-5.40407 0.611296,-15.87465 0.61262,-19.79039 -5.363354,4.98778 -9.040446,20.31566 -0.277491,22.50437 49.010604,5.41046 98.06058,10.5111 147.13732,15.283 10.20744,-51.18474 20.55867,-102.39624 30.19592,-153.66057 -5.27772,-1.75241 -10.51028,-1.81781 -4.89282,2.88356 -9.88326,48.27925 -19.4646,96.65908 -29.61903,144.85324 8.32172,-44.65483 18.00663,-89.26478 26.79488,-133.91445 1.02558,-5.67491 3.92224,-11.63316 -1.5314,-15.70372 5.5163,0.53528 13.48517,-0.6447 8.93137,7.2133 -9.86923,49.63218 -19.60041,99.29764 -29.34583,148.95054 l -0.35818,0.21593 -1.90557,-0.14365 z m 4.22613,-81.74367 c 6.36254,-32.99568 13.2817,-65.89022 19.2721,-98.953716 -40.04036,-3.077057 -80.10009,-5.940206 -120.171148,-8.587604 -15.252669,49.54654 -30.323877,99.15083 -45.212247,148.80806 40.878488,4.88238 81.934445,8.49239 122.904035,12.64947 7.05994,1.12913 14.95182,2.85215 13.85917,-7.08281 3.17499,-15.59928 6.26587,-31.21557 9.34809,-46.8334 z M 122.6897,149.61165 c -12.58974,-1.17988 -25.179395,-2.36069 -37.769271,-3.53914 1.690181,-11.86892 5.319451,-23.70495 7.888784,-35.53076 1.391272,-8.60124 2.629335,-18.308556 13.698827,-13.934593 22.38941,1.638609 44.79374,3.150471 67.14965,5.192573 -2.95911,16.98888 -6.2507,33.93284 -9.824,50.80398 -8.39771,1.06785 -17.7028,-1.35709 -26.42501,-1.62199 -4.90664,-0.45329 -9.81295,-0.9102 -14.71898,-1.37007 z m 40.67813,2.72748 c 3.23191,-16.63889 6.88418,-33.21581 9.55402,-49.95232 C 147.5714,100.0388 122.1486,98.261662 96.74416,96.638659 92.694979,112.79326 88.930846,129.03368 85.473355,145.32497 111.251,148.07494 137.1041,150.4856 162.94285,152.57885 Z M 34.253016,230.221 c 4.514323,-6.99856 5.53856,-16.88018 8.648411,-25.04293 12.552004,-41.46384 25.33741,-82.87992 37.777128,-124.363889 -6.64242,5.878549 -6.827044,16.787647 -10.311284,24.834349 -13.002426,42.0729 -26.334434,84.11484 -38.964536,126.25838 0.924214,-0.60383 1.818331,-1.26811 2.850281,-1.68591 z" />
            <path
                 id="path5104"
                 style="fill:#8e6533;stroke-width:0.264583"
                 d="m 178.66226,270.21756 c -37.15081,-4.69881 -74.55781,-7.95995 -111.810347,-12.06689 -12.330673,-1.55024 -24.935264,-2.12221 -37.086508,-4.35315 -5.114988,-6.66777 -0.592875,-15.37485 1.361254,-22.59642 15.05279,-47.77571 29.337715,-95.79993 44.701085,-143.472926 1.209951,-10.618378 10.921007,-7.021987 18.213504,-6.502817 36.089802,2.712645 72.200872,5.133003 108.293612,7.804726 -5.18967,30.421707 -11.83753,60.642067 -17.59665,91.032817 -4.2131,21.27989 -8.33921,42.57739 -12.60353,63.84687 -26.39534,-2.04706 -52.75466,-5.37171 -79.149999,-7.79747 -18.993258,-1.90517 -37.986515,-3.81034 -56.979773,-5.71551 -4.060429,5.34296 -6.968067,14.40552 -3.090594,20.43487 46.848773,4.7323 93.730516,9.26781 140.634936,13.36924 7.99585,0.77512 -7.5197,0.29698 -9.61108,-0.3562 -43.72843,-4.05627 -87.442937,-8.26052 -131.163181,-12.40367 -5.247846,-5.40407 0.611296,-15.87465 0.61262,-19.79039 -5.363354,4.98778 -9.040446,20.31566 -0.277491,22.50437 49.010605,5.41046 98.060582,10.5111 147.137322,15.283 10.20744,-51.18474 20.55867,-102.39624 30.19592,-153.66057 -5.27735,-1.75214 -10.51032,-1.81827 -4.89332,2.88356 -9.81942,48.0533 -19.40984,96.15478 -29.49407,144.15293 9.27682,-48.20644 19.73987,-96.18787 28.93926,-144.41032 -3.80249,-3.02733 -5.08782,-5.99081 1.06794,-3.80689 10.88865,-1.29889 0.65443,12.30193 1.59429,18.3354 -9.04556,45.70485 -18.30866,91.37728 -26.869,137.17159 l -0.28903,0.16815 -1.83717,-0.0544 z m 4.08065,-81.82895 c 6.36254,-32.99568 13.2817,-65.89022 19.2721,-98.953716 -40.04036,-3.077057 -80.10009,-5.940206 -120.171148,-8.587604 -15.252669,49.54654 -30.323877,99.15083 -45.212247,148.80806 40.878488,4.88238 81.934445,8.49239 122.904035,12.64947 7.05994,1.12913 14.95182,2.85215 13.85917,-7.08281 3.17499,-15.59928 6.26587,-31.21557 9.34809,-46.8334 z M 122.6897,149.61165 c -12.58974,-1.17988 -25.179395,-2.36069 -37.769271,-3.53914 1.690181,-11.86892 5.319451,-23.70495 7.888784,-35.53076 1.391272,-8.60124 2.629335,-18.308556 13.698827,-13.934593 22.38941,1.638609 44.79374,3.150471 67.14965,5.192573 -2.95911,16.98888 -6.2507,33.93284 -9.824,50.80398 -8.39771,1.06785 -17.7028,-1.35709 -26.42501,-1.62199 -4.90664,-0.45329 -9.81295,-0.9102 -14.71898,-1.37007 z m 40.79846,2.52904 c 3.38013,-16.58395 7.10689,-33.16746 9.55637,-49.90115 -24.89474,-2.401263 -49.88095,-4.089266 -74.844409,-5.703223 -4.906082,5.361663 -4.714692,16.428483 -7.411131,24.141513 -1.902119,8.10966 -3.808365,16.21873 -5.732857,24.32286 11.380932,2.53609 23.443107,2.55608 35.095587,4.00146 14.28952,1.11926 28.6747,3.06673 42.91701,3.63431 z M 34.253016,230.221 c 4.514323,-6.99856 5.53856,-16.88018 8.648411,-25.04293 12.552004,-41.46384 25.33741,-82.87992 37.777128,-124.363889 -6.64242,5.878549 -6.827044,16.787647 -10.311284,24.834349 -13.002426,42.0729 -26.334434,84.11484 -38.964536,126.25838 0.924214,-0.60383 1.818331,-1.26811 2.850281,-1.68591 z" />
            <path
                 id="path5106"
                 style="fill:#745530;stroke-width:0.264583"
                 d="m 178.64907,270.14936 c -3.94306,-0.61741 6.42581,0.0378 0,0 z m -5.15938,-5.56075 c -1.78842,-1.48952 6.55527,0.88716 0,-3e-5 z m -3.63802,-0.45131 c 2.63962,-0.39792 0.51632,0.40523 0,0 z m -2.64274,-0.26499 c 2.32065,-0.38427 0.47899,0.4075 0,0 z m -2.91351,-0.26418 c 2.63962,-0.39792 0.51632,0.40523 0,0 z m -2.91041,-0.26458 c 2.6396,-0.39792 0.51632,0.40523 0,0 z m -2.64584,-0.26459 c 2.63962,-0.39795 0.51632,0.40527 0,0 z m -2.91041,-0.26458 c 2.6396,-0.39792 0.51632,0.40523 0,0 z m -2.64275,-0.26499 c 2.32068,-0.38424 0.47896,0.40747 0,0 z m -2.9135,-0.26418 c 2.6396,-0.39795 0.51632,0.40527 0,0 z m -2.64583,-0.26458 c 2.6396,-0.39792 0.51632,0.40523 0,0 z m -2.91042,-0.26458 c 2.6396,-0.39792 0.51632,0.40523 0,0 z m -2.64275,-0.26499 c 2.32066,-0.38428 0.47899,0.4075 0,0 z m -2.9135,-0.26418 c 2.6396,-0.39792 0.51632,0.40523 0,0 z m -2.64275,-0.26499 c 2.32068,-0.38427 0.47895,0.4075 0,0 z m -2.9135,-0.26418 c 2.6396,-0.39795 0.51632,0.40527 0,0 z m -2.64275,-0.26498 c 2.32068,-0.38427 0.47895,0.4075 0,0 z m -2.9135,-0.26418 c 2.6396,-0.39792 0.51632,0.40523 0,0 z m -2.64275,-0.26499 c 2.32066,-0.38428 0.47899,0.4075 0,0 z m -2.9135,-0.26418 c 2.6396,-0.39792 0.51632,0.40523 0,0 z m -2.64275,-0.26499 c 2.3207,-0.38424 0.47896,0.40747 0,0 z m 56.70478,-0.23179 c 0.17024,-1.0197 0.26832,1.2043 0,0 z m -59.61828,-0.0324 c 2.63962,-0.39795 0.51632,0.40527 0,0 z m -2.91042,-0.26458 c 2.63962,-0.39792 0.51632,0.40523 0,0 z m -2.64583,-0.26458 c 2.63962,-0.39792 0.51633,0.40523 0,0 z m -2.64275,-0.26499 c 2.32068,-0.38428 0.47899,0.4075 0,0 z m -2.9135,-0.26418 c 2.63962,-0.39792 0.51633,0.40523 0,0 z m -2.64275,-0.26499 c 2.3207,-0.38424 0.47896,0.40747 0,0 z m -2.9135,-0.26418 c 2.63962,-0.39795 0.51632,0.40527 0,0 z m -2.910415,-0.26458 c 2.639608,-0.39792 0.516321,0.40523 0,0 z m -2.642748,-0.26499 c 2.320685,-0.38427 0.478957,0.4075 0,0 z m -2.645834,-0.26458 c 2.320664,-0.38428 0.478992,0.4075 0,0 z m -2.913501,-0.26418 c 2.639608,-0.39792 0.516321,0.40523 0,0 z m -2.910417,-0.26458 c 2.639608,-0.39792 0.516321,0.40523 0,0 z m -2.642748,-0.26499 c 2.320662,-0.38428 0.478991,0.4075 0,0 z m -2.913501,-0.26418 c 2.639608,-0.39792 0.516321,0.40523 0,0 z m -2.642749,-0.26499 c 2.320687,-0.38424 0.478962,0.40747 0,0 z m -2.913501,-0.26418 c 2.639607,-0.39795 0.516319,0.40527 0,0 z m -2.642748,-0.26498 c 2.320686,-0.38427 0.478957,0.4075 0,0 z m -2.913502,-0.26418 c 2.639608,-0.39792 0.516321,0.40523 0,0 z m -2.642748,-0.26499 c 2.320662,-0.38428 0.478991,0.4075 0,0 z m -2.913501,-0.26418 c 2.639606,-0.39792 0.51632,0.40523 0,0 z m -2.642749,-0.26499 c 2.320687,-0.38424 0.478962,0.40747 0,0 z m -2.913501,-0.26418 c 2.639607,-0.39795 0.516319,0.40527 0,0 z m -2.642748,-0.26498 c 2.320685,-0.38427 0.478957,0.4075 0,0 z m -2.913502,-0.26418 c 2.639608,-0.39792 0.516321,0.40523 0,0 z m -2.642748,-0.26499 c 2.320662,-0.38428 0.478991,0.4075 0,0 z m -2.913502,-0.26418 c 2.639608,-0.39792 0.516321,0.40523 0,0 z m -2.642748,-0.26499 c 2.320686,-0.38427 0.478957,0.4075 0,0 z m -2.913501,-0.26418 c 2.639607,-0.39795 0.516319,0.40527 0,0 z m -2.642749,-0.26498 c 2.320688,-0.38427 0.478957,0.4075 0,0 z m -2.913501,-0.26418 c 2.639608,-0.39792 0.516321,0.40523 0,0 z m -3.877307,-0.75863 c -2.481878,-7.29079 -0.981075,1.17546 2.752828,0.61454 -0.943682,0.0377 -2.024631,0.15481 -2.752828,-0.61454 z m -4.928816,-2.36425 c -0.07484,-8.40939 0.727869,-2.74869 0.295876,1.98669 l -0.295885,-1.98669 z m 138.616485,-4.62617 c -3.25994,-0.9926 2.79362,-0.11105 0,0 z m 4.6145,0.0821 c 1.47917,-0.2284 -0.45493,0.45366 0,0 z m 0.84336,0.0808 c 0.72277,-1.43108 1.16741,0.38211 0,0 z m 8.22297,-0.31903 c 0.17024,-1.01969 0.26832,1.2043 0,0 z m -148.649989,-0.7717 c 0.252243,-1.72744 0.163246,2.05602 0,0 z m 136.921289,0.75081 c 1.45702,-0.42946 0.26443,0.46311 0,0 z m -5.55316,-0.54106 c 2.32068,-0.38427 0.47896,0.4075 0,0 z m -2.64584,-0.26459 c 2.3207,-0.38424 0.47896,0.40747 0,0 z m -2.64583,-0.26458 c 2.32066,-0.38428 0.47899,0.4075 0,0 z m 15.1652,-0.23179 c 0.17023,-1.0197 0.26833,1.20425 0,0 z m -17.81103,-0.0328 c 2.32068,-0.38427 0.47896,0.4075 0,0 z m -2.64584,-0.26459 c 2.3207,-0.38424 0.47896,0.40747 0,0 z m -2.64583,-0.26458 c 2.32066,-0.38428 0.47899,0.4075 0,0 z M 31.327741,240.9084 c 0.28836,-1.25655 0.155211,1.59369 0,0 z m 115.243689,0.47433 c 2.32068,-0.38427 0.47896,0.4075 0,0 z m -2.64584,-0.26459 c 2.3207,-0.38427 0.47896,0.4075 0,0 z m -2.64583,-0.26458 c 2.32066,-0.38428 0.47899,0.4075 0,0 z m -2.64583,-0.26458 c 2.32068,-0.38427 0.47896,0.4075 0,0 z m -2.64584,-0.26459 c 2.3207,-0.38427 0.47896,0.4075 0,0 z m -2.64583,-0.26458 c 2.32066,-0.38428 0.47899,0.4075 0,0 z M 31.560131,239.71245 c 0.48975,-3.36339 5.289426,-12.71459 -0.524334,-5.71464 -3.631289,5.88659 0.760583,-4.99126 4.520874,-4.34995 15.238122,-49.51416 30.304638,-99.08281 45.19657,-148.702182 -2.295225,-1.790204 7.142114,-0.713892 0.956952,0.08824 C 66.37748,130.57569 51.241006,180.18039 36.303134,229.84264 c -0.175826,1.16109 -4.924991,6.41364 -4.743003,9.86981 z m 99.136299,0.0828 c 2.32068,-0.38427 0.47896,0.4075 0,0 z m -2.64584,-0.26459 c 2.3207,-0.38427 0.47896,0.4075 0,0 z m -2.64583,-0.26458 c 2.32066,-0.38428 0.47899,0.4075 0,0 z m -2.64892,-0.26418 c 2.63962,-0.39792 0.51632,0.40523 0,0 z m -2.64583,-0.26458 c 2.63962,-0.39792 0.51633,0.40523 0,0 z m -2.64583,-0.26459 c 2.6396,-0.39795 0.51632,0.40527 0,0 z m -2.64584,-0.26458 c 2.63962,-0.39792 0.51632,0.40523 0,0 z m -2.64583,-0.26458 c 2.63962,-0.39792 0.51633,0.40523 0,0 z m -2.64583,-0.26459 c 2.6396,-0.39795 0.51632,0.40527 0,0 z m -2.64584,-0.26458 c 2.63962,-0.39792 0.51632,0.40523 0,0 z m -2.64583,-0.26458 c 2.63962,-0.39792 0.51633,0.40523 0,0 z m -2.64583,-0.26459 c 2.6396,-0.39795 0.51632,0.40527 0,0 z m -2.645835,-0.26458 c 2.639605,-0.39792 0.516321,0.40523 0,0 z m -2.645834,-0.26458 c 2.639608,-0.39792 0.516321,0.40523 0,0 z m -2.645833,-0.26459 c 2.639607,-0.39795 0.516318,0.40527 0,0 z m -2.645833,-0.26458 c 2.639608,-0.39792 0.516321,0.40523 0,0 z m -2.378165,-0.26499 c 2.320685,-0.38424 0.478961,0.40747 0,0 z m -2.645833,-0.26458 c 2.320662,-0.38428 0.478991,0.4075 0,0 z m -2.645833,-0.26458 c 2.320686,-0.38427 0.478957,0.4075 0,0 z m -2.645833,-0.26459 c 2.320684,-0.38424 0.478962,0.40747 0,0 z m -2.645834,-0.26458 c 2.320664,-0.38428 0.478992,0.4075 0,0 z M 75.398514,234.239 c 2.320688,-0.38427 0.478957,0.4075 0,0 z m -2.645833,-0.26459 c 2.320685,-0.38424 0.478961,0.40747 0,0 z m -2.645833,-0.26458 c 2.320662,-0.38428 0.478991,0.4075 0,0 z m -2.645833,-0.26458 c 2.320685,-0.38427 0.478957,0.4075 0,0 z m -2.645833,-0.26459 c 2.320685,-0.38427 0.478957,0.4075 0,0 z m -2.645834,-0.26458 c 2.320664,-0.38428 0.478992,0.4075 0,0 z m -2.645833,-0.26458 c 2.320686,-0.38427 0.478957,0.4075 0,0 z m -2.645833,-0.26459 c 2.320686,-0.38427 0.478957,0.4075 0,0 z m -2.645833,-0.26458 c 2.320662,-0.38428 0.478991,0.4075 0,0 z m -2.645834,-0.26458 c 2.320688,-0.38427 0.478957,0.4075 0,0 z m -2.645833,-0.26459 c 2.320685,-0.38424 0.478961,0.40747 0,0 z m -2.645833,-0.26458 c 2.320662,-0.38428 0.478991,0.4075 0,0 z M 43.648516,231.064 c 2.320686,-0.38427 0.478957,0.4075 0,0 z m -2.645833,-0.26459 c 2.320685,-0.38424 0.478961,0.40747 0,0 z m -2.645834,-0.26458 c 2.320664,-0.38428 0.478992,0.4075 0,0 z m 144.546441,-2.61304 c 0.17024,-1.0197 0.26833,1.20427 0,0 z m -7.40833,-1.85209 c 0.17024,-1.01969 0.26833,1.20428 0,0 z m 0.26458,-1.32291 c 0.17024,-1.0197 0.26833,1.20427 0,0 z m 10.58333,-13.75834 c 0.17024,-1.01969 0.26835,1.20427 0,0 z m -7.14375,-3.70416 c 0.17024,-1.0197 0.26836,1.20424 0,0 z m 0.26459,-1.32292 c 0.17023,-1.0197 0.26833,1.20429 0,0 z m 0.26458,-1.32292 c 0.17024,-1.01969 0.26832,1.2043 0,0 z m 9.78958,-9.26041 c 0.17024,-1.0197 0.26835,1.20426 0,0 z m 0.26459,-1.32292 c 0.17023,-1.0197 0.26833,1.20429 0,0 z m -6.87917,-5.55625 c 0.17024,-1.0197 0.26832,1.2043 0,0 z m 0.26458,-1.32292 c 0.17024,-1.01969 0.26835,1.20427 0,0 z m 0.26459,-1.32291 c 0.17023,-1.0197 0.26833,1.20425 0,0 z m 3.175,-16.13959 c 0.17024,-1.01969 0.26833,1.20428 0,0 z m 0.26458,-1.32291 c 0.17024,-1.0197 0.26833,1.20427 0,0 z m 0.26458,-1.32292 c 0.17024,-1.0197 0.26836,1.20427 0,0 z m 0.26459,-1.32292 c 0.17024,-1.01969 0.26833,1.20428 0,0 z m 8.73125,-2.91041 c 0.17023,-1.0197 0.26833,1.20425 0,0 z M 163.04707,153.033 c 0.45355,-1.87981 1.40007,-0.4344 0,0 z m -2.31849,-0.28189 c 1.74419,-0.39138 0.3381,0.43917 0,0 z m -2.91041,-0.26459 c 1.74419,-0.39138 0.3381,0.43917 0,0 z m -2.91042,-0.26458 c 1.74419,-0.3914 0.33809,0.43921 0,0 z m -2.91041,-0.26458 c 1.74419,-0.39138 0.3381,0.43917 0,0 z m -2.91042,-0.26459 c 1.74419,-0.39138 0.3381,0.43917 0,0 z m -2.64583,-0.26458 c 1.74419,-0.3914 0.33809,0.43921 0,0 z m -2.91042,-0.26458 c 1.74419,-0.39138 0.3381,0.43917 0,0 z m 46.78095,-0.23557 c 0.17024,-1.0197 0.26833,1.20427 0,0 z m -49.69137,-0.029 c 1.74419,-0.39138 0.3381,0.43917 0,0 z m -2.91041,-0.26458 c 1.74419,-0.3914 0.33809,0.43921 0,0 z m -2.91042,-0.26458 c 1.74419,-0.39138 0.3381,0.43917 0,0 z m -2.78316,-0.25646 c 1.45702,-0.42943 0.26443,0.46307 0,0 z m -2.77309,-0.27271 c 1.74419,-0.3914 0.33809,0.43921 0,0 z m 61.33304,-0.23557 c 0.17023,-1.0197 0.26833,1.20429 0,0 z m -64.24346,-0.029 c 1.74419,-0.39138 0.3381,0.43917 0,0 z m -2.91041,-0.26459 c 1.74419,-0.39138 0.3381,0.43917 0,0 z m -2.91042,-0.26458 c 1.74419,-0.3914 0.33809,0.43921 0,0 z m -2.91042,-0.26458 c 1.74419,-0.39138 0.3381,0.43917 0,0 z m -2.64583,-0.26459 c 1.74419,-0.39138 0.3381,0.43917 0,0 z m 75.88512,-0.23557 c 0.17024,-1.01969 0.26832,1.2043 0,0 z m -78.79554,-0.029 c 1.74419,-0.3914 0.33809,0.43921 0,0 z m -2.91041,-0.26458 c 1.74419,-0.39138 0.3381,0.43917 0,0 z m -2.91042,-0.26459 c 1.74419,-0.39138 0.3381,0.43917 0,0 z m -2.91042,-0.26458 c 1.74419,-0.3914 0.33809,0.43921 0,0 z m 95.99346,-0.23557 c 0.17023,-1.0197 0.26833,1.20429 0,0 z m -98.90387,-0.029 c 1.74419,-0.39138 0.3381,0.43917 0,0 z m -2.645835,-0.26459 c 1.744189,-0.39138 0.3381,0.43917 0,0 z m 66.889285,-0.23557 c 0.17024,-1.01969 0.26832,1.2043 0,0 z m -69.799702,-0.029 c 1.744192,-0.3914 0.338093,0.43921 0,0 z m -2.910416,-0.26458 c 1.744189,-0.39138 0.3381,0.43917 0,0 z m -2.910417,-0.26459 c 1.744189,-0.39138 0.3381,0.43917 0,0 z M 86.116089,145.872 c 1.744192,-0.3914 0.338093,0.43921 0,0 z m -1.217708,-0.25762 c -0.659911,-1.49534 1.342964,0.56575 4e-6,0 z m 80.013249,-0.24253 c 0.17023,-1.0197 0.26833,1.20425 0,0 z m 0.26458,-1.32292 c 0.17023,-1.0197 0.26833,1.20429 0,0 z m 0.26458,-1.32292 c 0.17024,-1.01969 0.26832,1.2043 0,0 z m -79.90416,-0.52916 c 0.170205,-1.0197 0.268392,1.20425 0,0 z m 80.16875,-0.79375 c 0.17023,-1.0197 0.26833,1.20425 0,0 z m 0.26458,-1.32292 c 0.17023,-1.0197 0.26833,1.20429 0,0 z m 0.26458,-1.32292 c 0.17024,-1.01969 0.26832,1.2043 0,0 z m -79.639577,-1.05833 c 0.170205,-1.0197 0.268389,1.20428 0,0 z m 79.904167,-0.26458 c 0.17023,-1.0197 0.26833,1.20425 0,0 z m 0.26458,-1.32292 c 0.17023,-1.0197 0.26833,1.20429 0,0 z m -79.110413,-2.91042 c 0.170208,-1.01969 0.268385,1.20428 0,0 z M 194.01579,132.1426 c 0.17024,-1.0197 0.26832,1.2043 0,0 z m 8.46667,-0.52917 c 0.17024,-1.01969 0.26833,1.20428 0,0 z m -8.20209,-0.79375 c 0.17024,-1.01969 0.26832,1.2043 0,0 z m -26.45833,-0.26458 c 0.17024,-1.0197 0.26832,1.2043 0,0 z m 26.72292,-1.05833 c 0.17023,-1.0197 0.26833,1.20425 0,0 z m -26.45833,-0.26459 c 0.17024,-1.01969 0.26833,1.20428 0,0 z m -79.375,-0.52916 c 0.170205,-1.0197 0.268392,1.20425 0,0 z m 106.09791,-0.52917 c 0.17024,-1.0197 0.26832,1.2043 0,0 z m -26.45833,-0.26458 c 0.17023,-1.0197 0.26833,1.20425 0,0 z m 0.26458,-1.32292 c 0.17024,-1.0197 0.26832,1.2043 0,0 z m 0.26459,-1.32292 c 0.17024,-1.01969 0.26833,1.20428 0,0 z M 89.769963,124.2051 c 0.170205,-1.0197 0.268389,1.20428 0,0 z m 79.374997,-0.26458 c 0.17023,-1.0197 0.26833,1.20425 0,0 z m 0.26458,-1.32292 c 0.17024,-1.0197 0.26832,1.2043 0,0 z m 0.26459,-1.32292 c 0.17024,-1.01969 0.26833,1.20428 0,0 z m -79.110417,-0.52916 c 0.170205,-1.0197 0.268392,1.20425 0,0 z m 79.374997,-0.79375 c 0.17023,-1.0197 0.26833,1.20425 0,0 z m -79.110414,-0.26459 c 0.170209,-1.01969 0.268386,1.20428 0,0 z m 79.374994,-1.05833 c 0.17024,-1.0197 0.26832,1.2043 0,0 z m 34.79828,-0.26899 c -0.38597,-1.87319 0.95287,1.2518 0,0 z m -2.03086,-1.89178 c -2.41091,-2.52891 2.78278,2.43784 0,0 z m 7.98461,-0.0794 c -1.08012,-3.03352 1.13471,0.22734 0,0 z M 91.622046,116.2676 c 0.170205,-1.0197 0.268389,1.20428 0,0 z m 0.264584,-1.05833 c 0.170203,-1.0197 0.268391,1.20425 0,0 z m 109.53538,-0.74909 c -0.68131,-2.11593 1.40303,1.00285 0,0 z m -3.43747,-2.42591 c 0.17024,-1.0197 0.26833,1.20427 0,0 z M 92.68038,111.76968 c 0.170208,-1.01969 0.268385,1.20428 0,0 z m 78.84583,0 c 0.17024,-1.01969 0.26833,1.20428 0,0 z m 0.26458,-1.32291 c 0.17024,-1.0197 0.26833,1.20427 0,0 z m 26.70203,-0.91961 c 0.81799,-1.4303 0.47014,1.79574 0,0 z m -26.43744,-0.40331 c 0.17023,-1.0197 0.26833,1.20429 0,0 z m 0.26458,-1.32292 c 0.17024,-1.01969 0.26833,1.20428 0,0 z m -78.581247,-0.52916 c 0.170205,-1.0197 0.268392,1.20425 0,0 z m 78.845827,-0.79375 c 0.17024,-1.0197 0.26833,1.20427 0,0 z m 0.26459,-1.32292 c 0.17023,-1.01969 0.26833,1.20425 0,0 z m 0.26458,-1.32292 c 0.17024,-1.01969 0.26833,1.20428 0,0 z m -78.316664,-1.05833 c 0.170201,-1.01969 0.268393,1.20425 0,0 z m 78.357174,-0.37483 c -0.48438,-2.19072 1.56781,1.93865 0,0 z m -2.11192,-0.71155 c 2.04931,-0.41175 0.39346,0.42558 0,0 z m -3.56879,-0.26933 c 2.32068,-0.38427 0.47895,0.4075 0,0 z m -3.57496,-0.25984 c 2.04931,-0.41175 0.39346,0.42558 0,0 z m -3.56879,-0.26932 c 2.32068,-0.38424 0.47896,0.40747 0,0 z m -3.57496,-0.25984 c 2.04931,-0.41175 0.39346,0.42558 0,0 z m -3.56879,-0.26933 c 2.32068,-0.384269 0.47895,0.4075 0,0 z m -3.57496,-0.25984 c 2.04931,-0.411748 0.39346,0.42558 0,0 z m -3.43958,-0.264582 c 2.04931,-0.411748 0.39346,0.425572 0,0 z m -3.70417,-0.264583 c 2.04931,-0.411748 0.39346,0.425576 0,0 z m -3.43958,-0.264584 c 2.04931,-0.411751 0.39346,0.425579 0,0 z m -3.56879,-0.269328 c 2.32012,-0.384312 0.47978,0.408243 0,0 z m -3.57496,-0.259838 c 2.04931,-0.411748 0.39346,0.425576 0,0 z M 95.855379,98.275932 c 0.170207,-1.019691 0.268389,1.20427 0,0 z m 32.589001,0.236539 c 2.04934,-0.411753 0.39346,0.425581 0,0 z m -3.56879,-0.269328 c 2.32014,-0.384313 0.47978,0.408243 0,0 z m -3.57495,-0.259838 c 2.04931,-0.411748 0.39346,0.425576 0,0 z m -3.56879,-0.269329 c 2.32012,-0.384312 0.47978,0.408243 0,0 z m -3.57496,-0.259838 c 2.04931,-0.411748 0.39346,0.425576 0,0 z M 96.211387,97.01957 c 1.355067,-4.652609 1.570359,2.028537 0,0 z m 14.376713,0.16524 c 2.32012,-0.384309 0.47978,0.40824 0,0 z m -3.57496,-0.259839 c 2.04931,-0.411751 0.39346,0.425579 0,0 z m -3.43959,-0.264583 c 2.04931,-0.411748 0.39346,0.425576 0,0 z m -3.704164,-0.264583 c 2.049324,-0.411749 0.393454,0.425576 0,0 z M 202.06469,89.169856 c 0.32859,-1.043079 0.9494,1.007325 0,0 z" />
        </g>
        <text
             xml:space="preserve"
             style="font-style:normal;font-weight:normal;font-size:16px;line-height:1.25;font-family:sans-serif;fill:black;fill-opacity:1;stroke:none"
             x="6.054687"
             y="123.32516"
             id="guide-text"><tspan
                 sodipodi:role="line"
                 id="tspan884"
                 x="6.054687"
                 y="123.32516"
                 style="font-size:16px;fill:white">Hướng dẫn</tspan></text>
        <g
             id="information-icon">
            <ellipse
                 id="shadow"
                 cx="46.994194"
                 cy="216.98198"
                 fill="url(#shadowGradient)"
                 style="fill:url(#shadowGradient);stroke-width:1.76782"
                 rx="46.846767"
                 ry="46.847733" />
            <circle
                 id="field"
                 r="42.833679"
                 cx="44.4939"
                 cy="214.4939"
                 fill="url(#fieldGradient)"
                 stroke="url(#edgeGradient)"
                 stroke-width="3.32044"
                 style="fill:url(#fieldGradient);stroke:url(#edgeGradient)" />
            <g
                 id="info"
                 fill="white"
                 transform="matrix(1.6602202,0,0,1.6602202,-6.9729261,163.02707)">
                <polygon
                     points="39,44 39,48 23,48 23,44 27,44 27,28 23,28 23,25 35,25 35,44 "
                     id="polygon999" />
                <circle
                     r="4"
                     cx="31"
                     cy="17"
                     id="circle1001" />
            </g>
        </g>
    </g>
</svg>
